<svg viewBox="0 0 554 1117" fill="none" xmlns="http://www.w3.org/2000/svg"><path d="M273 639a4 4 0 004 4h231a4 4 0 004-4v-10a4 4 0 00-4-4H277a4 4 0 00-4 4v10z" fill="#23F354" stroke="#000" stroke-width="2"/><path d="M61 262a4 4 0 004-4V-14a4 4 0 00-4-4H51a4 4 0 00-4 4v272a4 4 0 004 4h10zM309 670a4 4 0 004-4V394a4 4 0 00-4-4h-10a4 4 0 00-4 4v272a4 4 0 004 4h10z" fill="#15CBF6" stroke="#000" stroke-width="2"/><path d="M64 267l-1-6H45v3l2 8 2 5 6 8 5 5 6 3 6 3h9v-17h-2l-5-1-4-2-4-5-2-4z" fill="#FF8E47"/><path d="M81 297c-19.882 0-36-16.118-36-36M81 279c-9.941 0-18-8.059-18-18" stroke="#000" stroke-width="2"/><rect x="38" y="250" width="34" height="10" rx="3" fill="#fff" stroke="#000" stroke-width="2"/><rect x="82" y="270" width="10" height="34" rx="3" fill="#fff" stroke="#000" stroke-width="2"/><path d="M285 690l-6 1v18h3l8-2 5-2 8-6 5-5 3-6 3-6v-9h-17v2l-1 5-2 4-5 4-4 2z" fill="#FF8E47"/><path d="M315 673c0 19.882-16.118 36-36 36M297 673c0 9.941-8.059 18-18 18" stroke="#000" stroke-width="2"/><rect x="268" y="716" width="34" height="10" rx="3" transform="rotate(-90 268 716)" fill="#fff" stroke="#000" stroke-width="2"/><rect x="288" y="672" width="10" height="34" rx="3" transform="rotate(-90 288 672)" fill="#fff" stroke="#000" stroke-width="2"/><path d="M110 307l1 6h18v-3l-2-8-2-5-6-8-5-5-6-3-6-3h-9v17h2l5 1 4 2 4 5 2 4z" fill="#23F354"/><path d="M93 277c19.882 0 36 16.118 36 36M93 295c9.941 0 18 8.059 18 18" stroke="#000" stroke-width="2"/><rect x="136" y="324" width="34" height="10" rx="3" transform="rotate(180 136 324)" fill="#fff" stroke="#000" stroke-width="2"/><rect x="92" y="304" width="10" height="34" rx="3" transform="rotate(-180 92 304)" fill="#fff" stroke="#000" stroke-width="2"/><path d="M249 679l-1-6h-18v3l2 8 2 5 6 8 5 5 6 3 6 3h9v-17h-2l-5-1-4-2-4-5-2-4z" fill="#23F354"/><path d="M266 709c-19.882 0-36-16.118-36-36M266 691c-9.941 0-18-8.059-18-18" stroke="#000" stroke-width="2"/><rect x="223" y="662" width="34" height="10" rx="3" fill="#fff" stroke="#000" stroke-width="2"/><rect x="267" y="682" width="10" height="34" rx="3" fill="#fff" stroke="#000" stroke-width="2"/><path d="M274 347a4 4 0 00-4-4H153a4 4 0 00-4 4v10a4 4 0 004 4h117a4 4 0 004-4v-10z" fill="#FF8E47" stroke="#000" stroke-width="2"/><path d="M129 331l-1-6h-18v3l2 8 2 5 6 8 5 5 6 3 6 3h9v-17h-2l-5-1-4-2-4-5-2-4z" fill="#15CBF6"/><path d="M146 361c-19.882 0-36-16.118-36-36M146 343c-9.941 0-18-8.059-18-18" stroke="#000" stroke-width="2"/><rect x="103" y="314" width="34" height="10" rx="3" fill="#fff" stroke="#000" stroke-width="2"/><rect x="147" y="334" width="10" height="34" rx="3" fill="#fff" stroke="#000" stroke-width="2"/><path d="M260 644l6-1v-18h-3l-8 2-5 2-8 6-5 5-3 6-3 6v9h17v-2l1-5 2-4 5-4 4-2z" fill="#15CBF6"/><path d="M230 661c0-19.882 16.118-36 36-36M248 661c0-9.941 8.059-18 18-18" stroke="#000" stroke-width="2"/><rect x="277" y="618" width="34" height="10" rx="3" transform="rotate(90 277 618)" fill="#fff" stroke="#000" stroke-width="2"/><rect x="257" y="662" width="10" height="34" rx="3" transform="rotate(90 257 662)" fill="#fff" stroke="#000" stroke-width="2"/><path d="M294 372l1 6h18v-3l-2-8-2-5-6-8-5-5-6-3-6-3h-9v17h2l5 1 4 2 4 5 2 4z" fill="#23F354"/><path d="M277 342c19.882 0 36 16.118 36 36M277 360c9.941 0 18 8.059 18 18" stroke="#000" stroke-width="2"/><rect x="320" y="389" width="34" height="10" rx="3" transform="rotate(180 320 389)" fill="#fff" stroke="#000" stroke-width="2"/><rect x="276" y="369" width="10" height="34" rx="3" transform="rotate(-180 276 369)" fill="#fff" stroke="#000" stroke-width="2"/><path d="M542 888a4 4 0 004-4V671a4 4 0 00-4-4h-10a4 4 0 00-4 4v213a4 4 0 004 4h10z" fill="#FF8E47" stroke="#000" stroke-width="2"/><path d="M527 655l1 6h18v-3l-2-8-2-5-6-8-5-5-6-3-6-3h-9v17h2l5 1 4 2 4 5 2 4z" fill="#15CBF6"/><path d="M510 625c19.882 0 36 16.118 36 36M510 643c9.941 0 18 8.059 18 18" stroke="#000" stroke-width="2"/><rect x="553" y="672" width="34" height="10" rx="3" transform="rotate(180 553 672)" fill="#fff" stroke="#000" stroke-width="2"/><rect x="509" y="652" width="10" height="34" rx="3" transform="rotate(-180 509 652)" fill="#fff" stroke="#000" stroke-width="2"/><path d="M45 918a4 4 0 004 4h451a4 4 0 004-4v-10a4 4 0 00-4-4H49a4 4 0 00-4 4v10z" fill="#15CBF6" stroke="#000" stroke-width="2"/><path d="M516 903l-6 1v18h3l8-2 5-2 8-6 5-5 3-6 3-6v-9h-17v2l-1 5-2 4-5 4-4 2z" fill="#23F354"/><path d="M546 886c0 19.882-16.118 36-36 36M528 886c0 9.941-8.059 18-18 18" stroke="#000" stroke-width="2"/><rect x="499" y="929" width="34" height="10" rx="3" transform="rotate(-90 499 929)" fill="#fff" stroke="#000" stroke-width="2"/><rect x="519" y="885" width="10" height="34" rx="3" transform="rotate(-90 519 885)" fill="#fff" stroke="#000" stroke-width="2"/><path d="M27 894l-1-6H8v3l2 8 2 5 6 8 5 5 6 3 6 3h9v-17h-2l-5-1-4-2-4-5-2-4z" fill="#FF8E47"/><path d="M44 924c-19.882 0-36-16.118-36-36M44 906c-9.941 0-18-8.059-18-18" stroke="#000" stroke-width="2"/><rect x="1" y="877" width="34" height="10" rx="3" fill="#fff" stroke="#000" stroke-width="2"/><rect x="45" y="897" width="10" height="34" rx="3" fill="#fff" stroke="#000" stroke-width="2"/><path d="M38 859l6-1v-18h-3l-8 2-5 2-8 6-5 5-3 6-3 6v9h17v-2l1-5 2-4 5-4 4-2z" fill="#15CBF6"/><path d="M8 876c0-19.882 16.118-36 36-36M26 876c0-9.941 8.059-18 18-18" stroke="#000" stroke-width="2"/><rect x="55" y="833" width="34" height="10" rx="3" transform="rotate(90 55 833)" fill="#fff" stroke="#000" stroke-width="2"/><rect x="35" y="877" width="10" height="34" rx="3" transform="rotate(90 35 877)" fill="#fff" stroke="#000" stroke-width="2"/><path d="M87 1138a4 4 0 004-4V890a4 4 0 00-4-4H77a4 4 0 00-4 4v244a4 4 0 004 4h10z" fill="#FF8E47" stroke="#000" stroke-width="2"/><path d="M73 870l1 6h18v-3l-2-8-2-5-6-8-5-5-6-3-6-3h-9v17h2l5 1 4 2 4 5 2 4z" fill="#23F354"/><path d="M56 840c19.882 0 36 16.118 36 36M56 858c9.941 0 18 8.059 18 18" stroke="#000" stroke-width="2"/><rect x="99" y="887" width="34" height="10" rx="3" transform="rotate(180 99 887)" fill="#fff" stroke="#000" stroke-width="2"/><rect x="55" y="867" width="10" height="34" rx="3" transform="rotate(-180 55 867)" fill="#fff" stroke="#000" stroke-width="2"/></svg>